PathFileType	4	(X/Y/Z)	/home/abdul/Desktop/myosuite/custom_workspace/IK/output/S1_12_1.trc
DataRate	CameraRate	NumFrames	NumMarkers	Units	OrigDataRate	OrigDataStartFrame	OrigNumFrames
200.0	200.0	22	3	mm	200.0	439	3511
Frame#	Time	V_Shoulder			V_Elbow			V_Wrist		
		X1	Y1	Z1	X2	Y2	Z2	X3	Y3	Z3

439	2.19	-205.69949479993178	484.20655384476066	354.34855674817624	-293.6414701949901	308.4223845975107	35.24438547316135	-118.11098817668375	112.756351455004	106.34197732608052
440	2.195	-205.7033888890932	484.14341892052647	354.33857967898075	-293.5123077323792	308.40918001744956	35.17186361923042	-117.9543960560006	112.78174514601676	106.30959186616778
441	2.2	-205.70741917062875	484.08128755258576	354.3289497701441	-293.3839186297637	308.3965663671803	35.10014548602271	-117.79909218881146	112.80727872186293	106.27792953704267
442	2.205	-205.71158370253931	484.0201504661079	354.3196811086081	-293.25628049700276	308.38444228831486	35.02929157454812	-117.64502090290274	112.83290989053074	106.24711787427086
443	2.21	-205.7158807549091	483.9599981614154	354.3107875334322	-293.1293701015171	308.3727066531982	34.959361956831415	-117.49212263931007	112.8585988034553	106.21728244667875
444	2.215	-205.72030880767502	483.9008209265471	354.3022826051599	-293.0031633303206	308.36125877306154	34.89041614037106	-117.34033405746948	112.88430804906655	106.18854658025661
445	2.22	-205.72486654789154	483.8426088476244	354.2941795737533	-292.87763514793835	308.34999861057236	34.822512924760176	-117.18958815118214	112.91000263705735	106.16103107560066
446	2.225	-205.72955286650782	483.7853518170353	354.2864913451397	-292.7527595506736	308.3388269967255	34.75571025061263	-117.03981437516907	112.93564997414788	106.1348539190864
447	2.23	-205.73436685467084	483.7290395394704	354.27923044643507	-292.6285095177285	308.32764585198856	34.69006504099925	-116.89093878198322	112.96121983214945	106.11012998805265
448	2.235	-205.73930779956788	483.67366153586244	354.2724089899165	-292.5048569597216	308.3163584115725	34.62563303566187	-116.74288416903622	112.98668430915015	106.08697075036605
449	2.24	-205.7443751798202	483.61920714530476	354.26603863583836	-292.381772665182	308.30486945466004	34.56246861833718	-116.59557023549044	113.01201778465892	106.06548395882788
450	2.245	-205.74956866043738	483.56566552503926	354.2601305541921	-292.25922624563384	308.29308553738014	34.50062463758605	-116.44891374875854	113.0371968695534	106.04577334097822
451	2.25	-205.75488808734087	483.51302564862226	354.25469538553267	-292.137186079916	308.28091522927275	34.44015222158905	-116.30282872034456	113.0622003516792	106.02793828494579
452	2.255	-205.7603334814637	483.4612763023968	354.2497432009988	-292.0156192584086	308.26826935294156	34.38110058743281	-116.15722659075382	113.08700913794519	106.01207352208573
453	2.26	-205.76590503243162	483.4104060804132	354.24528346167426	-291.8944915278658	308.2550612265434	34.32351684547592	-116.0120164231904	113.11160619374968	105.9982688072389
454	2.265	-205.7716030918306	483.36040337795794	354.24132497744614	-291.7737672375722	308.2412069087153	34.26744579944619	-115.86710510575244	113.13597648055844	105.98660859753667
455	2.27	-205.7774281660637	483.3112563838616	354.2378758655271	-291.65340928756234	308.22662544548837	34.21292974298249	-115.72239756182674	113.1601068924343	105.97717173076265
456	2.275	-205.783380908799	483.2629530717745	354.2349435088219	-291.53337907965175	308.21123911868744	34.160008253394565	-115.57779696837413	113.18398619229244	105.97003110436609
457	2.28	-205.78946211301138	483.2154811906061	354.232534514326	-291.41363647204287	308.1949736952646	34.10871798347251	-115.43320498178569	113.20760494862436	105.96525335630236
458	2.285	-205.7956727026186	483.1688282543376	354.23065467175496	-291.29413973827104	308.1777586769626	34.059092452232186	-115.28852197097905	113.23095547339696	105.96289854894965
459	2.29	-205.80201372371235	483.1229815314243	354.22930891260916	-291.17484553125917	308.15952754965343	34.0111618355359	-115.1436472573894	113.2540317617922	105.96301985742076
460	2.295	-205.80848633538616	483.0779280340135	354.2285012698872	-291.0557088532447	308.14021803164684	33.964952757576164	-114.99847936149686	113.27682943440688	105.9656632636516
